<svg
      width="531"
      height="263"
      viewBox="0 0 531 263"
      fill="none"
      xmlns="http://www.w3.org/2000/svg"
    >
      <defs>
        <style>
          svg {
            transform: rotate(5deg);
            
          }
          #signature {
            stroke-dasharray: 2102.5;
            stroke-dashoffset: 2102.5;
            animation: sign 3s ease forwards;
          }

          @keyframes sign {
            to {
              stroke-dashoffset: 0;
            }
          }
        </style>
      </defs>
      <path
        id="signature"
        d="M3.098 121.018C-7.90186 77.0176 65.5982 -29.4824 140.598 11.0176C140.598 11.0176 5.72437 233.682 89.5982 258.842M92.0982 259.518C181.098 281.018 281.098 11.0176 281.098 11.0176C281.098 11.0176 247.098 121.018 278.098 132.018C278.098 132.018 288.098 89.0176 300.098 107.018C303.555 112.203 303.444 122.7 301.533 135.018M92.0982 259.518C91.2441 259.311 90.4109 259.086 89.5982 258.842M92.0982 259.518L89.5982 258.842M281.572 205.746C281.266 206.574 281.098 207.018 281.098 207.018L281.572 205.746ZM281.572 205.746C284.226 198.552 297.298 162.314 301.533 135.018M301.533 135.018C301.533 135.018 311.098 93.0176 323.598 107.018M323.598 107.018C324.199 107.691 324.704 108.53 325.121 109.518M323.598 107.018L325.121 109.518M307.098 207.018C307.098 207.018 321.237 165.088 325.515 135.018M325.121 109.518C327.321 114.732 327.069 124.092 325.515 135.018M325.515 135.018C325.515 135.018 329.098 107.018 346.098 107.018C363.098 107.018 346.098 181.018 329.098 207.018C329.098 207.018 423.098 132.018 398.098 107.018C373.098 82.0176 371.098 121.018 371.098 121.018C371.098 121.018 329.098 307.018 450.098 205.746C450.098 205.746 452.098 135.218 514.098 109.518C576.098 83.8171 424.098 83.0176 493.566 121.018C501.925 125.59 533.098 121.018 512.722 135.018C492.345 149.018 493.566 171.018 493.566 205.746"
        stroke="black"
        stroke-width="3"
      />
    </svg>